<?xml version="1.0" encoding="UTF-8"?>
<svg width="86px" height="14px" viewBox="0 0 86 14" version="1.1" xmlns="http://www.w3.org/2000/svg" xmlns:xlink="http://www.w3.org/1999/xlink">
    <!-- Generator: Sketch 42 (36781) - http://www.bohemiancoding.com/sketch -->
    <title>sp-logo-name-light-contrast</title>
    <desc>Created with Sketch.</desc>
    <defs></defs>
    <g id="Page-1" stroke="none" stroke-width="1" fill="none" fill-rule="evenodd" fill-opacity="0.8">
        <g id="Artboard" transform="translate(-727.000000, -281.000000)" fill="#000000">
            <g id="Logos/Text/Light-Contrast" transform="translate(727.000000, 281.000000)">
                <g id="Group-Copy-4">
                    <path d="M3.95215307,1.66914893 C4.55502397,1.66914893 5.04306221,1.87021276 5.44497603,2.27234043 C5.84688997,2.67446809 6.04784693,3.19148936 6.07655507,3.82340426 L6.07655507,3.96702128 L7.39712921,3.96702128 L7.39712921,3.82340426 C7.39712921,2.84680851 7.02392341,2.04255319 6.33492821,1.4393617 C5.645933,0.836170209 4.84210524,0.520212762 3.92344493,0.520212762 C3.00478472,0.520212762 2.2296651,0.836170209 1.56937803,1.4680851 C0.937799,2.1 0.593301448,2.87553191 0.593301448,3.79468085 C0.593301448,4.34042553 0.708134,4.85744676 0.909090862,5.28829791 C1.11004783,5.71914895 1.39712921,6.09255324 1.74162676,6.35106381 C2.08612441,6.60957448 2.4593301,6.86808515 2.86124403,7.09787238 L4.03827748,7.787234 C4.44019141,7.98829791 4.78468897,8.24680847 5.10047848,8.47659571 C5.4162679,8.70638295 5.67464114,9.02234038 5.84688997,9.39574467 C6.04784693,9.76914895 6.13397124,10.2 6.13397124,10.6882979 C6.13397124,11.2340426 5.93301438,11.7223404 5.53110045,12.0957447 C5.10047848,12.4978724 4.61244024,12.6989362 4.00956934,12.6989362 L3.77990434,12.6989362 C3.17703345,12.6989362 2.68899521,12.4978724 2.25837324,12.0670212 C1.82775117,11.6361702 1.62679421,11.1478724 1.62679421,10.5446809 L1.62679421,9.97021276 L0.449760759,9.97021276 L0.449760759,10.5446809 C0.449760759,11.4638298 0.765550276,12.2393617 1.42583734,12.9 C2.05741628,13.5319149 2.86124403,13.8765957 3.77990434,13.8765957 L4.15311003,13.8765957 C5.07177034,13.8765957 5.84688997,13.5606383 6.4784689,12.9 C7.11004783,12.2680851 7.45454548,11.4638298 7.45454548,10.5446809 C7.45454548,9.85531914 7.31100479,9.22340429 7.05263155,8.67765962 C6.76555028,8.13191485 6.39234448,7.70106381 5.96172252,7.44255324 L3.26315786,5.77659571 C2.88995217,5.54680847 2.54545452,5.23085105 2.28708138,4.88617019 C2.02870814,4.54148933 1.91387559,4.13936171 1.91387559,3.70851064 C1.91387559,3.13404255 2.11483255,2.64574468 2.51674638,2.27234043 C2.88995217,1.87021276 3.34928228,1.66914893 3.95215307,1.66914893 L3.95215307,1.66914893 Z" id="Shape"></path>
                    <path d="M15.9234449,0.69255319 L12.5645933,0.69255319 L12.5645933,13.6755319 L13.799043,13.6755319 L13.799043,9.05106381 L15.9234449,9.05106381 C16.6698564,9.05106381 17.3588517,8.76382981 17.9043062,8.21808515 C18.4497608,7.67234038 18.7368421,7.01170209 18.7368421,6.23617019 L18.7368421,3.4787234 C18.7368421,2.70319149 18.4497608,2.04255319 17.9043062,1.49680851 C17.3588517,0.979787238 16.6985646,0.69255319 15.9234449,0.69255319 L15.9234449,0.69255319 Z M13.799043,1.84148936 L15.8947368,1.84148936 C16.354067,1.84148936 16.7272727,1.98510638 17.0430622,2.32978724 C17.3588517,2.64574468 17.5311004,3.01914893 17.5311004,3.4787234 L17.5311004,6.29361705 C17.5311004,6.75319153 17.3875598,7.12659571 17.0717703,7.44255324 C16.7559808,7.75851067 16.3827751,7.90212762 15.9234449,7.90212762 L13.8277512,7.90212762 L13.8277512,1.84148936 L13.799043,1.84148936 Z" id="Shape"></path>
                    <polygon id="Shape" points="24.8229666 7.38510638 29.1291866 7.38510638 29.1291866 6.23617019 24.8229666 6.23617019 24.8229666 1.84148936 29.5598086 1.84148936 29.5598086 0.69255319 23.5885167 0.69255319 23.5885167 13.6755319 29.7320574 13.6755319 29.7320574 12.4978724 24.8229666 12.4978724"></polygon>
                    <path d="M37.9712919,0.520212762 L37.8564593,0.520212762 C36.937799,0.520212762 36.1626794,0.836170209 35.5311004,1.49680851 C34.8708134,2.1287234 34.555024,2.93297872 34.555024,3.85212766 L34.555024,10.5446809 C34.555024,11.4638298 34.8708134,12.2680851 35.5311004,12.9 C36.1913875,13.5606383 36.9665071,13.8765957 37.8564593,13.8765957 L37.9712919,13.8765957 C38.8899522,13.8765957 39.6650718,13.5606383 40.3253589,12.9 C40.9569378,12.2680851 41.3014354,11.4638298 41.3014354,10.5446809 L41.3014354,10.3148936 L40.0669856,10.3148936 L40.0669856,10.5446809 C40.0669856,11.1478724 39.8660288,11.6361702 39.4354067,12.0670212 C39.0047847,12.4978724 38.5167464,12.6989362 37.9138756,12.6989362 C37.2822967,12.6989362 36.7942584,12.4978724 36.3636363,12.0670212 C35.9330144,11.6361702 35.7320574,11.1478724 35.7320574,10.5446809 L35.7320574,3.82340426 C35.7320574,3.22021276 35.9330144,2.70319149 36.3636363,2.30106383 C36.7942584,1.87021276 37.2822967,1.66914893 37.9138756,1.66914893 C38.5167464,1.66914893 39.0047847,1.87021276 39.4066986,2.30106383 C39.8373206,2.7319149 40.0382775,3.22021276 40.0382775,3.85212766 L40.0382775,3.99574468 L41.2727273,3.99574468 L41.2727273,3.85212766 C41.2727273,2.93297872 40.9569378,2.15744681 40.2966507,1.49680851 C39.6650718,0.836170209 38.8899522,0.520212762 37.9712919,0.520212762 L37.9712919,0.520212762 Z" id="Shape"></path>
                    <polygon id="Shape" points="47.645933 0.69255319 46.4114833 0.69255319 46.4114833 13.6755319 51.8373206 13.6755319 51.8373206 12.4978724 47.645933 12.4978724"></polygon>
                    <polygon id="Shape" points="57.5789474 7.38510638 61.8851674 7.38510638 61.8851674 6.23617019 57.5789474 6.23617019 57.5789474 1.84148936 62.3157895 1.84148936 62.3157895 0.69255319 56.3444977 0.69255319 56.3444977 13.6755319 62.4880382 13.6755319 62.4880382 12.4978724 57.5789474 12.4978724"></polygon>
                    <path d="M70.5837324,1.66914893 C71.1866031,1.66914893 71.674641,1.87021276 72.0765552,2.27234043 C72.4784693,2.67446809 72.6794259,3.19148936 72.7081338,3.82340426 L72.7081338,3.96702128 L74.0287079,3.96702128 L74.0287079,3.82340426 C74.0287079,2.84680851 73.6555028,2.04255319 72.9665072,1.4393617 C72.2775117,0.836170209 71.4736845,0.520212762 70.5550234,0.520212762 C69.6363634,0.520212762 68.861244,0.836170209 68.200957,1.4680851 C67.569378,2.1 67.2248804,2.87553191 67.2248804,3.79468085 C67.2248804,4.34042553 67.3397129,4.85744676 67.5406699,5.28829791 C67.7416268,5.71914895 68.0287081,6.09255324 68.3732058,6.35106381 C68.7177033,6.60957448 69.0909091,6.86808515 69.4928228,7.09787238 L70.6698562,7.787234 C71.0717703,7.98829791 71.4162676,8.24680847 71.7320579,8.47659571 C72.0478472,8.70638295 72.3062197,9.02234038 72.4784693,9.39574467 C72.6794259,9.76914895 72.7655507,10.2 72.7655507,10.6882979 C72.7655507,11.2340426 72.5645931,11.7223404 72.162679,12.0957447 C71.7320579,12.4978724 71.244019,12.6989362 70.6411483,12.6989362 L70.4114828,12.6989362 C69.8086121,12.6989362 69.3205741,12.4978724 68.8899522,12.0670212 C68.4593301,11.6361702 68.2583732,11.1478724 68.2583732,10.5446809 L68.2583732,9.97021276 L67.0239234,9.97021276 L67.0239234,10.5446809 C67.0239234,11.4638298 67.3397129,12.2393617 68,12.9 C68.6315789,13.5319149 69.4354067,13.8765957 70.3540669,13.8765957 L70.7272731,13.8765957 C71.6459331,13.8765957 72.4210524,13.5606383 73.0526321,12.9 C73.6842107,12.2680851 74.0287079,11.4638298 74.0287079,10.5446809 C74.0287079,9.85531914 73.8851672,9.22340429 73.6267938,8.67765962 C73.3397124,8.13191485 72.9665072,7.70106381 72.5358852,7.44255324 L69.837321,5.77659571 C69.4641148,5.54680847 69.1196173,5.23085105 68.861244,4.88617019 C68.6028708,4.54148933 68.4880382,4.13936171 68.4880382,3.70851064 C68.4880382,3.13404255 68.6889952,2.64574468 69.0909091,2.27234043 C69.5215307,1.87021276 70.0095697,1.66914893 70.5837324,1.66914893 L70.5837324,1.66914893 Z" id="Shape"></path>
                    <path d="M84.3062197,7.41382981 L81.6076555,5.74787238 C81.2344493,5.51808515 80.8899521,5.20212762 80.6315786,4.85744676 C80.3732062,4.512766 80.2583734,4.11063829 80.2583734,3.67978724 C80.2583734,3.10531915 80.45933,2.61702128 80.8612441,2.24361702 C81.2631583,1.84148936 81.7511962,1.66914893 82.325359,1.66914893 C82.9282297,1.66914893 83.4162676,1.87021276 83.8181817,2.27234043 C84.2200959,2.67446809 84.4210524,3.19148936 84.4497603,3.82340426 L84.4497603,3.96702128 L85.7703345,3.96702128 L85.7703345,3.82340426 C85.7703345,2.84680851 85.3971293,2.04255319 84.7081338,1.4393617 C84.0191383,0.836170209 83.215311,0.520212762 82.296651,0.520212762 C81.37799,0.520212762 80.6028707,0.836170209 79.9425841,1.4680851 C79.3110045,2.1 78.9665072,2.87553191 78.9665072,3.79468085 C78.9665072,4.34042553 79.08134,4.85744676 79.2822966,5.28829791 C79.4832531,5.71914895 79.7703345,6.09255324 80.1148328,6.35106381 C80.45933,6.60957448 80.8325362,6.86808515 81.2344493,7.09787238 L82.4114828,7.787234 C82.8133969,7.98829791 83.1578952,8.24680847 83.4736845,8.47659571 C83.7894738,8.70638295 84.0478472,9.02234038 84.2200959,9.39574467 C84.4210524,9.76914895 84.5071772,10.2 84.5071772,10.6882979 C84.5071772,11.2340426 84.3062197,11.7223404 83.9043066,12.0957447 C83.4736845,12.4978724 82.9856455,12.6989362 82.3827748,12.6989362 L82.1531103,12.6989362 C81.5502397,12.6989362 81.0622007,12.4978724 80.6315786,12.0670212 C80.2009566,11.6361702 80,11.1478724 80,10.5446809 L80,9.97021276 L78.7655507,9.97021276 L78.7655507,10.5446809 C78.7655507,11.4638298 79.08134,12.2393617 79.7416266,12.9 C80.3732062,13.5319149 81.1770334,13.8765957 82.0956934,13.8765957 L82.4688997,13.8765957 C83.3875597,13.8765957 84.162679,13.5606383 84.7942586,12.9 C85.4258372,12.2680851 85.7703345,11.4638298 85.7703345,10.5446809 C85.7703345,9.85531914 85.6267938,9.22340429 85.3684214,8.67765962 C85.1100479,8.10319153 84.7655507,7.70106381 84.3062197,7.41382981 L84.3062197,7.41382981 Z" id="Shape"></path>
                </g>
            </g>
        </g>
    </g>
</svg>