<?xml version="1.0" encoding="UTF-8"?>
<svg width="26px" height="26px" viewBox="0 0 26 26" version="1.1" xmlns="http://www.w3.org/2000/svg" xmlns:xlink="http://www.w3.org/1999/xlink">
    <!-- Generator: Sketch 42 (36781) - http://www.bohemiancoding.com/sketch -->
    <title>sp-logo-mark-dark-contrast</title>
    <desc>Created with Sketch.</desc>
    <defs></defs>
    <g id="Page-1" stroke="none" stroke-width="1" fill="none" fill-rule="evenodd">
        <g id="Artboard" transform="translate(-408.000000, -395.000000)" fill="#FFFFFF">
            <g id="Logos/Mark/Light-Contrast" transform="translate(408.000000, 395.000000)">
                <path d="M24,18 L18,18 L18,24 L24,24 L24,18 L24,18 Z M24,16 L2,16 L2,2 L9,2 L9,16 L11,16 L11,2 L24,2 L24,16 L24,16 Z M26,26 L26,0 L0,0 L0,26 L26,26 Z M16,18 L2,18 L2,24 L16,24 L16,18 L16,18 Z" id="Logos/Mark/-Copy"></path>
            </g>
        </g>
    </g>
</svg>